#!OML:ASF F:\VICON\USERDATA\INSTALL\rory3\rory3.ASF
:FULLY-SPECIFIED
:DEGREES
117
root 1.5172516546184243 17.93305461001855 55.13302701020098 -3.8887168534550542 2.4405916694655296 -4.98145515822924
lfemur -17.29722807509236 -2.329751544289064 -16.400611615152908
ltibia 48.55846640886257
lfoot -7.445564244865473 0.7620017689429788
ltoes -15.661898101508747
rfemur -6.276115332223162 0.4807726472040965 28.36140253978879
rtibia 33.667391762659406
rfoot -9.90391884887281 -10.36995739320141
rtoes -2.819068683719241
lowerback nan -0.11462060836533014 2.9432019638616165
upperback -0.40846422407151906 0.6360589561663551 1.8874311497960221
thorax -6.0635302061181955 0.3221832270725082 0.20854582450071613
lowerneck -16.41562923469074 -3.9219873063870407 -1.5303793084779178
upperneck 21.432551919473056 -5.424550813311355 1.5571453295830047
head 9.671511215139482 -2.423395564939799 0.07667403163066716
lclavicle -2.573507505951471e-15 -2.7787405015607725e-15
lhumerus -32.700455141674574 3.2551281220262434 82.50203110403783
lradius 24.433234858921175
lwrist 11.489472287230647
lhand -29.837050700414768 18.18301494755943
lfingers nan
lthumb -3.0961853954365246 48.256440254525245
rclavicle -2.5300332273076016e-15 -2.75912226465473e-15
rhumerus -31.858593311479257 -21.874426244465134 -75.73157393509177
rradius 32.41292879913014
rwrist 1.4706854198116104
rhand -17.522199169778855 nan
rfingers nan
rthumb 8.608639606150819 -7.486863641628857
118
root 1.506830253869364 17.93511958577263 55.11919886253191 -3.753828287184495 2.634067145032467 -5.083612506615922
lfemur -16.959738027739576 -2.574999770108265 -16.663776019575288
ltibia 42.984790409213176
lfoot -6.559695022200836 1.356482023404182
ltoes -16.42113316394249
rfemur -6.143128677837777 0.7263078833055532 28.65879311309041
rtibia 35.06640043205159
rfoot -7.408831282186146 -10.122884159897982
rtoes -0.8609325413920228
lowerback nan -0.0572235982083773 3.033535606194792
upperback -0.4364485952606694 0.6805647596491079 1.7919381129064855
thorax -6.02554817597416 0.35683601809633747 0.046625141089204236
lowerneck -16.317172383464666 -3.941949963022683 -1.5873612013954757
upperneck 21.547580136406268 -5.467546909137802 1.6343797062265095
head 9.71142975102961 -2.4373187873546014 0.1000688226257303
lclavicle -2.573288119749058e-15 -2.7792260306798852e-15
lhumerus -32.534739182214416 3.2420977205955928 82.36820780930364
lradius 24.971831134345653
lwrist 11.254879761316532
lhand -29.868298475233672 18.104394548937794
lfingers nan
lthumb -3.077066189142689 48.305650645905395
rclavicle -2.5314447825869446e-15 -2.76165287898958e-15
rhumerus -31.690031038473798 -21.82106132357993 -75.74700350552354
rradius 32.36427903435158
rwrist 1.2069234527954498
rhand -17.51352690083339 nan
rfingers nan
rthumb 8.63537910355044 -7.406332772426151
119
root 1.4897242400318906 17.94062572038109 55.3767513522343 -3.649172794419652 2.738817603217469 -5.077725845199511
lfemur -16.216384651925196 -2.7266573880790395 -16.993252754492254
ltibia 37.39501634782925
lfoot -6.652642163800401 -0.13045571620641905
ltoes -16.23498292970476
rfemur -7.2673113276433465 0.7707675825761329 28.353041321929826
rtibia 37.465912688653674
rfoot -5.463783788000367 -10.234220294803873
rtoes 1.4686705257284407
lowerback nan -0.035455479596149475 2.9623715172772043
upperback -0.4544289385693392 0.6647881551487277 1.7212164500878988
thorax -6.007478461494668 0.3593433975692796 -0.009560439746169935
lowerneck -16.271850979966466 -3.955492595519579 -1.6304611172580896
upperneck 21.61576604281364 -5.497854688697858 1.7340861661591347
head 9.735649782637838 -2.4451158518715554 0.13476037922720208
lclavicle -2.5740645436295706e-15 -2.7800864821669134e-15
lhumerus -32.165550349997545 3.2766401152645286 82.28707453050363
lradius 25.477487368204553
lwrist 11.040262820773858
lhand -29.850756709347472 18.18364648303696
lfingers nan
lthumb -3.0647159045917816 48.389144224780104
rclavicle -2.5328885408987207e-15 -2.763800663034564e-15
rhumerus -31.526913432891877 -21.682347746233816 -75.75430241400697
rradius 32.35419389359227
rwrist 1.1756281172426597
rhand -17.518346371903956 nan
rfingers nan
rthumb 8.632560414975448 -7.370256896033334
120
root 1.462899341524746 17.940412386103123 54.678450689503386 -3.692679889105607 2.6572560817021396 -5.010600913189786
lfemur -15.141009856241139 -2.797296845766252 -17.38835254055209
ltibia 32.44839112273158
lfoot -6.100763541298956 -0.34655249352202233
ltoes -15.818213083570686
rfemur -8.293375103143305 0.6891455984374202 28.131002830509843
rtibia 40.451003421542204
rfoot -4.200210104950674 -10.516860254318736
rtoes 3.7648431848209696
lowerback nan -0.012368465604948198 2.798193728776438
upperback -0.4513070029880277 0.6573837306642891 1.6774163677005294
thorax -5.984039289224939 0.38346387984579816 0.06648151888315557
lowerneck -16.26896431122215 -3.9652899676132796 -1.6637591783076018
upperneck 21.628393830159176 -5.5203784911204234 1.8574309185275029
head 9.741695867955688 -2.4481007046972216 0.179840720413562
lclavicle -2.57561845742393e-15 -2.7809966672297515e-15
lhumerus -31.673173776858444 3.2222174626729756 82.24374463801549
lradius 25.937719022601364
lwrist 10.844183419967905
lhand -29.864494333362792 18.187446169636832
lfingers nan
lthumb -3.0327423129567888 48.50172965915267
rclavicle -2.534028959758331e-15 -2.7647569740740928e-15
rhumerus -31.492454301363043 -21.544442365391216 -75.81482231502767
rradius 32.37924407152099
rwrist 1.3549682523789284
rhand -17.486918285085284 nan
rfingers nan
rthumb 8.6831542404825 -7.206021749715727
121
root 1.4527878435307233 17.943134253448747 55.577616907199804 -3.710688269802151 2.8482819748748476 -4.585926260022405
lfemur -13.848150999612798 -2.928404229050127 -18.212693834295038
ltibia 28.78425927768877
lfoot -6.393879454163862 -2.0188049664315275
ltoes -15.255525915482425
rfemur -10.217892234020685 0.1513151548798488 27.207883382125715
rtibia 44.00111024808152
rfoot -4.132269169165593 -10.919883138765526
rtoes 5.614482083918206
lowerback nan -0.08572950038142294 2.3905790334708614
upperback -0.4296672215575522 0.5195862958134037 1.6484049458121397
thorax -5.976921147090151 0.32118346283095944 0.18707415286111306
lowerneck -16.298670810790664 -3.972776316090024 -1.6891431579110983
upperneck 21.590411157016387 -5.537495317207494 1.9978982213149077
head 9.730816476796386 -2.447137921477692 0.2318004440591983
lclavicle -2.5769043369066576e-15 -2.7812957387393175e-15
lhumerus -31.10604640150659 2.956792053685306 82.21564026255317
lradius 26.36969408588283
lwrist 10.669163246427713
lhand -29.80662158131518 18.3190664529603
lfingers nan
lthumb -2.98918227463465 48.59414432713895
rclavicle -2.53513441184763e-15 -2.7645330470388546e-15
rhumerus -31.547147841029805 -21.448773396012964 -75.95224256930263
rradius 32.408178464572025
rwrist 1.7171097080911242
rhand -17.489621092459313 nan
rfingers nan
rthumb 8.675703506457305 -7.162139110900436
